<?xml version="1.0" standalone="no"?>
<!DOCTYPE svg PUBLIC "-//W3C//DTD SVG 20010904//EN"
 "http://www.w3.org/TR/2001/REC-SVG-20010904/DTD/svg10.dtd">
<svg version="1.0" xmlns="http://www.w3.org/2000/svg"
 width="5000.000000pt" height="5000.000000pt" viewBox="0 0 5000.000000 5000.000000"
 preserveAspectRatio="xMidYMid meet">
<metadata>
Created by potrace 1.14, written by Peter Selinger 2001-2017
</metadata>
<g transform="translate(0.000000,5000.000000) scale(0.100000,-0.100000)"
fill="#000000" stroke="none">
<path d="M1715 26718 l0 -4153 1625 1 c2716 3 2770 3 2825 18 174 46 311 163
356 304 54 172 59 369 12 517 -63 201 -210 384 -383 477 -130 70 -187 101
-240 130 -25 14 -85 47 -135 73 -49 27 -108 58 -130 70 -22 12 -103 55 -180
95 -77 40 -144 76 -150 80 -5 4 -84 46 -175 93 -91 46 -214 111 -275 142 -124
65 -452 233 -748 384 -173 88 -352 196 -438 265 -15 12 -41 32 -59 46 -70 55
-130 109 -236 215 -277 276 -430 509 -580 882 -30 74 -54 143 -54 153 0 10 -4
21 -9 24 -5 3 -11 16 -14 28 -2 13 -18 77 -35 143 -17 66 -34 140 -37 165 -4
24 -8 47 -10 50 -1 3 -6 26 -9 53 -3 26 -9 67 -12 92 -23 179 -23 551 0 671 2
11 7 57 11 104 4 47 8 87 10 90 2 3 6 28 9 55 4 28 11 68 16 90 5 22 11 54 14
72 25 140 135 443 218 602 67 126 204 337 248 381 3 3 23 28 45 55 52 65 234
248 305 306 209 172 536 354 840 466 83 30 294 92 340 99 19 3 38 8 41 10 8 5
148 33 194 39 51 6 124 17 150 21 74 14 560 16 3207 17 1633 1 2969 4 2969 7
1 3 2 166 3 363 l1 357 -4765 0 -4765 0 0 -4152z"/>
<path d="M16817 29475 c-1 -1 -47 -5 -102 -8 -56 -4 -137 -11 -180 -17 -44 -6
-98 -13 -120 -16 -363 -47 -781 -188 -1110 -373 -416 -235 -759 -564 -993
-952 -312 -517 -456 -1061 -455 -1724 0 -198 13 -356 48 -600 5 -37 47 -242
65 -325 43 -192 159 -480 279 -693 23 -41 101 -167 113 -182 5 -5 32 -41 60
-80 222 -301 544 -574 866 -735 335 -167 626 -257 1017 -315 177 -26 625 -27
870 -1 47 5 169 20 175 21 3 1 30 5 60 9 242 34 572 126 834 232 116 46 163
75 151 94 -4 7 -46 183 -61 255 -8 42 -13 63 -34 155 -12 52 -28 118 -35 145
-8 28 -22 82 -31 120 -9 39 -18 73 -20 76 -2 4 -52 -11 -111 -33 -259 -96
-473 -161 -603 -183 -19 -3 -42 -8 -50 -10 -8 -2 -37 -7 -65 -10 -27 -4 -61
-8 -75 -10 -132 -20 -430 -25 -595 -12 -267 21 -595 123 -810 250 -255 152
-446 331 -605 567 -24 36 -52 78 -62 93 -11 16 -46 81 -78 145 -94 188 -170
444 -206 697 -3 17 -6 39 -9 50 -19 90 -25 429 -11 585 29 332 108 629 232
874 50 98 164 283 196 318 7 7 36 40 63 73 116 138 320 317 441 386 225 128
504 226 754 263 181 28 536 28 740 1 68 -9 224 -36 230 -40 4 -3 25 -7 45 -11
71 -11 290 -86 413 -141 86 -39 126 -53 134 -45 5 5 38 108 73 229 85 292 162
551 169 562 10 15 -276 132 -380 156 -10 2 -44 11 -74 20 -30 9 -63 18 -73 20
-10 2 -26 6 -35 9 -9 3 -32 8 -51 11 -19 3 -37 7 -40 9 -3 2 -22 7 -41 10 -58
10 -94 17 -110 21 -8 2 -37 7 -65 11 -27 3 -58 8 -69 10 -10 2 -44 6 -75 9
-31 3 -65 8 -76 10 -51 10 -508 27 -518 20z"/>
<path d="M42629 29366 c-2 -2 -40 -7 -84 -10 -44 -4 -105 -11 -135 -16 -30 -5
-68 -11 -85 -14 -202 -32 -467 -111 -675 -200 -255 -110 -568 -309 -764 -486
-123 -110 -329 -326 -375 -392 -8 -13 -21 -29 -28 -36 -25 -26 -151 -208 -203
-292 -76 -125 -190 -358 -242 -495 -43 -114 -94 -270 -103 -316 -2 -11 -7 -29
-10 -39 -3 -10 -8 -29 -10 -42 -3 -13 -7 -34 -10 -48 -12 -54 -32 -182 -40
-250 -31 -262 -26 -644 10 -857 3 -21 8 -51 10 -68 7 -53 35 -177 65 -290 81
-306 211 -606 360 -834 68 -104 190 -274 209 -291 3 -3 29 -32 56 -65 287
-344 695 -639 1110 -803 108 -43 290 -102 370 -121 28 -7 66 -16 85 -21 39
-10 85 -20 115 -25 98 -18 210 -35 255 -40 30 -4 69 -8 85 -10 181 -22 666
-22 795 0 14 2 50 6 81 9 377 38 860 187 1229 379 195 101 516 304 527 333 4
11 -303 796 -327 833 -7 12 -28 -2 -102 -65 -113 -96 -99 -85 -178 -143 -131
-96 -357 -223 -500 -281 -30 -12 -64 -26 -75 -30 -174 -70 -440 -134 -645
-155 -254 -26 -678 -26 -840 1 -125 20 -153 26 -230 46 -41 11 -79 21 -85 22
-5 2 -17 5 -25 8 -159 58 -211 79 -295 121 -284 143 -564 379 -765 646 -14 19
-33 43 -42 54 -10 11 -18 23 -18 27 0 5 106 77 235 161 129 85 326 214 436
287 111 72 202 132 203 132 1 0 94 60 206 134 113 74 270 177 350 229 80 52
253 166 385 252 132 86 306 201 388 254 81 53 216 141 300 196 142 93 246 161
697 456 96 63 237 155 312 204 76 50 211 138 300 196 405 265 517 339 523 349
7 12 -101 179 -187 287 -142 180 -435 449 -648 595 -405 279 -870 453 -1342
504 -35 3 -76 8 -93 11 -39 5 -531 13 -536 9z m484 -850 c54 -3 108 -8 120
-11 12 -3 40 -8 62 -11 132 -18 286 -58 426 -110 76 -28 233 -119 299 -172 56
-45 160 -143 160 -151 0 -3 -21 -19 -48 -36 -26 -16 -126 -81 -222 -143 -252
-165 -393 -257 -527 -343 -186 -121 -382 -248 -458 -297 -38 -25 -200 -130
-360 -234 -159 -103 -294 -191 -300 -196 -5 -4 -91 -60 -190 -123 -99 -64
-263 -171 -365 -237 -291 -189 -579 -376 -597 -387 -9 -5 -22 -14 -27 -18 -6
-4 -33 -22 -61 -40 -27 -18 -94 -61 -148 -96 -54 -34 -100 -61 -102 -59 -4 4
-43 183 -49 228 -16 106 -21 183 -21 345 0 155 9 308 20 325 2 3 6 21 9 40 14
81 51 208 91 313 98 253 256 493 463 706 157 160 302 276 477 383 81 49 279
148 297 148 8 0 18 4 24 9 26 25 298 105 454 134 117 22 142 26 245 33 50 4
91 7 92 8 3 3 144 -2 236 -8z"/>
<path d="M19059 29355 c-1 0 -2 -1302 -3 -2892 -1 -1924 2 -2894 9 -2896 10
-4 650 -2 997 3 127 2 203 7 212 14 8 6 43 66 77 134 35 67 75 144 89 170 14
26 62 117 107 202 44 85 92 175 105 200 14 25 53 99 88 165 106 203 159 303
250 475 48 91 116 219 150 285 35 66 100 190 145 275 107 202 163 307 242 460
36 69 78 148 93 175 15 28 54 102 88 165 114 220 165 315 192 365 15 28 55
104 90 170 35 66 83 158 108 205 24 47 72 137 105 200 33 63 97 185 142 270
177 333 200 376 217 410 20 41 19 202 21 -2600 l2 -1745 450 0 450 0 0 2895 0
2895 -375 -1 c-206 -1 -457 -3 -557 -4 l-182 -4 -47 -90 c-26 -50 -64 -122
-84 -161 -21 -38 -77 -146 -125 -240 -48 -93 -115 -222 -148 -285 -124 -239
-176 -340 -257 -495 -45 -88 -111 -214 -145 -280 -35 -66 -100 -192 -146 -280
-45 -88 -109 -209 -140 -270 -32 -60 -71 -137 -88 -170 -16 -33 -64 -125 -106
-205 -42 -80 -113 -215 -157 -300 -45 -85 -104 -200 -133 -255 -29 -55 -83
-158 -120 -230 -37 -71 -87 -166 -110 -210 -23 -44 -82 -156 -130 -250 -48
-93 -104 -201 -125 -240 -20 -38 -67 -126 -102 -195 -36 -69 -92 -177 -125
-240 -33 -63 -76 -144 -94 -180 l-34 -65 -5 540 c-3 297 -5 1342 -5 2322 0
1181 -3 1783 -10 1784 -7 1 -730 4 -876 4z"/>
<path d="M24712 29350 c-4 -3 -8 -810 -9 -1795 -1 -2178 -3 -2461 -14 -2550
-5 -38 -11 -92 -15 -120 -50 -415 -238 -623 -554 -610 -87 3 -144 11 -217 32
-29 8 -57 12 -62 9 -10 -6 -13 -85 -15 -435 l-1 -254 40 -14 c101 -36 301 -67
425 -67 218 1 514 74 652 161 21 12 40 23 43 23 4 0 32 18 63 39 147 100 270
246 352 415 53 110 85 224 115 406 3 19 8 42 10 50 4 16 8 41 24 165 30 223
33 390 34 2117 1 868 4 1579 7 1579 3 1 485 2 1072 3 707 1 1069 -2 1071 -9 2
-5 3 -1116 3 -2467 -1 -1352 1 -2459 4 -2459 3 -1 200 -2 438 -3 284 -1 432 2
433 9 1 5 2 1307 3 2893 1 2556 -1 2882 -14 2883 -55 4 -3883 3 -3888 -1z"/>
<path d="M29519 29355 c-1 0 -2 -1302 -3 -2892 -1 -1924 2 -2894 9 -2896 11
-4 657 -2 985 3 181 3 217 6 226 19 6 9 39 70 74 136 60 115 91 173 185 350
23 44 63 119 89 168 25 48 66 124 90 170 53 99 120 226 195 367 30 58 72 137
93 175 21 39 43 81 50 95 7 14 40 77 74 140 63 119 145 274 222 420 24 47 61
117 82 155 59 111 122 230 190 360 35 66 81 154 103 195 22 41 64 122 95 180
30 58 71 137 92 175 20 39 63 120 95 180 32 61 77 146 100 190 24 44 64 121
90 170 26 50 64 122 85 160 20 39 63 120 95 180 32 61 83 157 113 215 31 58
64 121 74 140 21 43 18 303 23 -2330 1 -1103 3 -2007 4 -2010 1 -3 202 -5 449
-5 l447 0 0 2890 c1 1589 -3 2893 -8 2896 -4 3 -220 4 -480 3 -467 -3 -624 -7
-631 -15 -1 -2 -52 -98 -111 -214 -59 -115 -132 -257 -163 -315 -30 -58 -80
-154 -112 -215 -32 -60 -99 -191 -150 -290 -51 -99 -114 -220 -140 -270 -48
-92 -119 -229 -252 -485 -42 -80 -102 -194 -133 -255 -32 -60 -94 -180 -137
-265 -44 -85 -105 -202 -135 -260 -157 -299 -225 -429 -358 -685 -37 -71 -92
-177 -123 -235 -30 -58 -83 -160 -118 -227 -35 -68 -94 -180 -131 -250 -106
-202 -218 -418 -285 -550 -34 -67 -64 -121 -66 -119 -2 2 -4 1046 -6 2320 -1
1273 -6 2319 -10 2323 -5 5 -719 12 -877 8z"/>
<path d="M34831 29350 c-8 -6 -9 -5779 -1 -5781 12 -3 866 -5 875 -2 7 2 10
450 9 1331 0 730 1 1332 3 1337 2 7 467 10 1371 10 l1367 0 0 -1337 c0 -736 2
-1339 5 -1339 12 -3 846 -5 855 -2 7 2 10 975 10 2896 l0 2892 -435 0 -435 0
0 -1162 c0 -769 -3 -1164 -10 -1166 -5 -2 -622 -3 -1370 -3 l-1360 1 0 1163
c0 770 -3 1162 -10 1163 -33 4 -868 3 -874 -1z"/>
<path d="M45536 29340 c-2 -8 -3 -193 -2 -410 l1 -395 845 0 845 0 0 -2485 0
-2485 460 0 460 0 0 2482 c0 1663 3 2483 10 2484 5 1 383 2 840 3 l830 1 0
408 c0 224 -2 408 -5 408 -3 1 -967 2 -2143 3 -1892 1 -2138 -1 -2141 -14z"/>
<path d="M5595 27930 l-500 -5 -74 -27 c-212 -77 -334 -232 -358 -453 -4 -38
-7 -79 -6 -90 1 -59 15 -149 33 -215 20 -75 78 -212 93 -218 4 -2 7 -8 7 -13
0 -19 62 -98 129 -166 91 -92 170 -141 506 -313 121 -62 258 -133 305 -158
133 -70 269 -141 475 -247 105 -54 253 -130 330 -170 77 -40 253 -130 390
-200 406 -207 447 -231 635 -369 103 -76 165 -130 291 -256 324 -324 541 -691
660 -1120 18 -64 17 -63 22 -85 3 -11 12 -47 20 -80 9 -33 18 -73 20 -90 3
-16 12 -73 21 -125 8 -52 19 -135 23 -185 15 -167 8 -550 -11 -651 -2 -10 -7
-41 -10 -69 -6 -41 -16 -102 -21 -125 -1 -3 -5 -27 -9 -55 -20 -128 -98 -396
-147 -502 -10 -24 -19 -45 -19 -48 0 -12 -78 -167 -123 -245 -41 -69 -132
-208 -169 -255 -40 -52 -203 -237 -229 -260 -362 -324 -782 -550 -1251 -674
-62 -17 -124 -32 -138 -35 -14 -2 -54 -10 -90 -16 -69 -13 -76 -14 -155 -25
-27 -3 -61 -8 -75 -11 -46 -7 -2244 -17 -4212 -18 l-1958 -1 0 -365 0 -365
4762 0 4763 0 0 4155 0 4155 -1715 0 c-943 0 -1940 -2 -2215 -5z"/>
<path d="M42597 21628 c-7 -4 -7 -8 -2 -8 6 0 10 -17 9 -38 0 -20 2 -41 5 -47
3 -5 6 -12 6 -15 6 -36 33 -94 49 -106 11 -8 17 -14 12 -14 -31 0 95 -92 129
-94 13 0 21 -4 19 -7 -6 -11 172 -31 190 -21 4 2 27 6 49 8 22 1 52 8 66 15
14 6 37 17 50 23 38 17 97 79 121 126 12 23 27 73 35 111 13 69 10 76 -20 69
-5 -1 -14 -2 -20 -2 -20 2 -110 4 -127 3 -13 -1 -18 -10 -18 -28 -1 -43 -33
-105 -74 -141 -33 -28 -43 -32 -97 -32 -67 0 -107 16 -138 56 -21 27 -44 91
-50 139 -1 12 -177 14 -194 3z"/>
<path d="M20735 21092 c-27 -8 -52 -18 -53 -23 -2 -5 -8 -7 -13 -3 -11 6 -120
-47 -169 -84 -124 -92 -209 -225 -246 -383 -35 -150 -39 -317 -9 -436 10 -40
22 -73 27 -73 5 0 6 -4 3 -10 -3 -5 13 -48 36 -95 41 -83 74 -122 168 -197 35
-28 161 -95 196 -103 116 -29 162 -35 248 -33 53 1 97 4 97 7 0 3 15 6 32 7
82 2 99 5 94 12 -2 4 7 7 22 6 37 -1 184 50 196 68 5 9 6 24 1 34 -5 11 -9 21
-9 24 -8 36 -31 107 -36 113 -4 4 -27 -1 -51 -11 -24 -11 -60 -22 -79 -26 -19
-3 -45 -8 -57 -10 -26 -5 -158 -18 -193 -20 -86 -2 -225 40 -292 89 -80 59
-127 134 -153 246 -10 41 -23 80 -29 88 -8 12 -8 13 2 7 9 -5 13 -3 11 5 -4
32 2 36 59 34 31 -1 63 3 71 9 11 8 13 8 8 0 -7 -13 271 -12 292 1 8 5 12 4 8
-1 -3 -5 105 -9 261 -9 l267 1 3 78 c3 63 1 77 -10 70 -11 -6 -11 -5 0 8 12
15 11 29 -4 123 -32 197 -148 372 -290 440 -111 53 -129 57 -259 60 -65 1
-118 -3 -150 -13z m145 -181 c148 -11 267 -106 296 -236 13 -56 19 -118 15
-151 -1 -7 -114 -10 -361 -10 l-359 0 5 25 c43 198 131 307 294 368 30 12 60
18 65 14 6 -4 26 -8 45 -10z"/>
<path d="M22955 21099 c-61 -13 -118 -31 -135 -44 -8 -6 -32 -20 -53 -30 -44
-23 -169 -144 -161 -156 3 -5 1 -9 -5 -9 -13 0 -23 50 -27 130 -1 36 -3 70 -3
75 -1 6 -47 10 -116 10 l-115 0 -1 -30 c0 -16 0 -147 1 -290 2 -143 3 -566 4
-940 0 -374 4 -682 8 -685 5 -4 227 -5 249 -1 8 1 3 67 -6 80 -3 5 -1 12 4 15
8 5 8 57 1 91 -1 6 -1 12 0 15 1 3 4 86 5 185 2 99 4 216 5 260 1 77 2 79 17
57 27 -38 125 -113 140 -108 8 3 12 2 8 -3 -8 -14 97 -50 167 -57 125 -13 198
-6 300 27 94 31 238 135 222 161 -4 6 -3 8 3 5 27 -17 144 180 159 268 2 11 8
39 14 63 31 129 29 304 -6 447 -27 114 -104 253 -169 306 -11 9 -31 27 -45 38
-108 95 -319 149 -465 120z m150 -226 c28 -10 52 -18 55 -18 43 -11 129 -89
164 -149 28 -48 66 -159 66 -193 0 -13 3 -22 8 -20 7 5 6 -160 -1 -223 -11
-87 -87 -249 -146 -310 -33 -35 -111 -74 -179 -90 -142 -33 -308 33 -393 156
-52 76 -69 140 -71 271 -2 66 -7 121 -13 125 -7 5 -6 8 1 8 7 0 12 24 13 61 6
215 197 414 386 402 33 -2 83 -11 110 -20z"/>
<path d="M27165 21102 c-32 -5 -149 -44 -155 -51 -3 -3 -11 -7 -18 -9 -28 -5
-100 -56 -167 -118 -58 -53 -152 -221 -141 -251 3 -8 2 -11 -4 -8 -5 3 -14
-14 -21 -37 -12 -45 -14 -54 -29 -128 -18 -90 -2 -326 27 -400 3 -8 7 -22 9
-30 3 -14 10 -31 43 -98 27 -56 98 -139 153 -180 97 -71 236 -129 259 -108 9
8 10 8 5 -1 -5 -9 1 -13 16 -14 13 -1 34 -3 48 -5 110 -14 340 -1 415 23 11 4
25 7 30 8 6 0 36 9 68 19 l59 18 -7 56 c-4 31 -10 59 -13 62 -4 3 -8 19 -10
35 -5 45 -15 49 -76 26 -31 -11 -56 -18 -56 -16 0 3 -9 1 -21 -6 -51 -27 -314
-34 -389 -9 -56 18 -123 54 -172 92 -67 52 -133 175 -144 268 -3 19 -6 43 -8
53 -5 21 -15 19 129 23 259 6 534 15 615 20 47 2 116 5 153 6 50 1 70 5 74 15
9 23 10 153 2 203 -15 90 -20 111 -45 182 -84 234 -261 355 -529 362 -44 1
-89 0 -100 -2z m165 -197 c49 -10 130 -51 163 -83 58 -55 92 -143 101 -263 l3
-45 -362 0 c-360 0 -362 0 -360 20 7 59 47 176 70 203 5 6 21 27 34 45 27 37
71 69 148 108 53 27 122 33 203 15z"/>
<path d="M34667 21104 c-2 -2 -22 -6 -45 -9 -83 -10 -233 -80 -214 -100 4 -5
2 -5 -5 -1 -13 7 -130 -106 -143 -139 -9 -21 -11 -6 -13 83 0 17 -3 32 -6 32
-3 0 -6 22 -5 50 0 29 -4 50 -10 51 -65 6 -216 2 -219 -6 -1 -5 -2 -50 -1
-100 1 -49 3 -248 5 -442 2 -226 6 -350 12 -346 6 4 7 1 1 -8 -9 -14 -13
-1038 -4 -1040 14 -3 236 -4 245 -2 6 2 10 126 10 346 0 188 1 349 3 358 3 11
20 0 60 -40 46 -46 116 -93 142 -96 3 0 11 -4 17 -8 24 -15 149 -33 214 -31
179 6 307 62 417 180 72 78 76 83 100 130 47 93 113 344 90 344 -7 0 -7 4 0
13 22 27 2 245 -34 369 -18 59 -73 168 -86 168 -4 0 -8 6 -8 13 0 26 -147 157
-177 157 -7 0 -13 4 -13 9 0 18 -166 62 -248 65 -44 2 -83 2 -85 0z m77 -215
c-2 -3 16 -12 39 -19 81 -24 119 -49 177 -116 34 -39 74 -123 79 -165 0 -5 5
-8 9 -5 5 3 6 -9 4 -26 -3 -17 -1 -28 4 -25 15 9 14 -222 0 -288 -47 -215
-139 -326 -307 -370 -84 -22 -228 -1 -298 43 -75 48 -145 148 -169 242 -4 19
-7 116 -6 215 2 187 8 225 56 318 40 80 140 163 231 193 31 10 187 13 181 3z"/>
<path d="M36717 21103 c-2 -1 -18 -5 -37 -8 -44 -7 -146 -42 -185 -64 -42 -22
-165 -120 -195 -155 -14 -15 -37 -51 -53 -79 -15 -28 -33 -57 -40 -65 -6 -8
-11 -16 -9 -16 2 -1 -2 -14 -8 -30 -35 -93 -53 -187 -54 -294 -2 -100 3 -140
29 -257 12 -50 66 -175 77 -175 4 0 8 -5 8 -11 0 -19 81 -109 92 -102 6 3 8 1
5 -4 -13 -21 153 -130 176 -116 5 3 7 2 4 -4 -4 -6 13 -16 36 -23 23 -8 48
-18 55 -24 14 -10 268 -13 312 -3 27 6 56 13 105 23 64 13 186 83 245 140 33
32 60 63 60 70 0 6 7 17 16 25 38 31 99 191 119 309 3 19 8 36 10 39 3 2 -1
11 -8 19 -8 11 -9 14 0 9 8 -5 13 4 15 30 4 55 -3 164 -10 159 -4 -2 -8 18 -9
44 -1 46 -54 218 -71 229 -4 3 -13 19 -20 34 -13 31 -20 39 -81 108 -24 27
-46 47 -49 44 -3 -3 -11 4 -19 15 -8 11 -20 20 -28 20 -7 0 -15 4 -17 9 -4 10
-108 59 -140 65 -13 3 -37 9 -55 15 -49 15 -267 34 -276 24z m217 -217 c51
-15 131 -67 154 -98 7 -9 18 -23 26 -30 25 -25 77 -149 91 -216 25 -119 25
-190 1 -321 -4 -18 -19 -65 -34 -104 -21 -57 -40 -85 -92 -138 -131 -132 -267
-157 -440 -80 -83 36 -177 161 -220 291 -44 133 -23 365 45 496 7 15 11 32 8
37 -3 6 -1 7 4 4 6 -4 22 11 37 33 27 41 91 94 136 112 83 35 98 38 165 34 39
-3 92 -12 119 -20z"/>
<path d="M40684 21090 c-80 -19 -109 -29 -206 -73 -76 -34 -75 -29 -36 -136
25 -69 37 -80 61 -57 8 8 17 12 21 9 3 -4 6 0 6 7 0 7 3 10 7 7 3 -4 11 -3 17
2 13 11 140 50 181 56 53 8 129 9 165 1 47 -9 130 -47 130 -59 0 -5 7 -6 16
-3 8 3 13 2 10 -3 -3 -4 3 -16 14 -26 27 -24 58 -112 65 -182 l5 -58 -82 -3
c-46 -1 -99 -5 -118 -8 -19 -2 -53 -7 -75 -10 -75 -9 -230 -55 -293 -86 -113
-54 -221 -184 -250 -299 -13 -49 -13 -199 -1 -199 6 0 8 -4 4 -9 -7 -12 22
-87 49 -125 35 -49 166 -160 166 -140 0 3 11 -1 24 -9 39 -26 177 -38 272 -24
87 13 194 68 269 138 39 36 59 47 61 32 12 -132 16 -144 43 -143 14 1 28 1 31
0 3 -1 42 -3 88 -4 68 -2 82 1 83 13 1 19 -2 94 -7 206 -2 44 -6 235 -9 425
-4 190 -9 352 -12 360 -3 8 -7 30 -9 49 -2 18 -8 39 -14 45 -5 7 -8 15 -6 17
9 8 -62 124 -73 121 -7 -1 -10 1 -8 5 3 5 0 15 -6 23 -18 23 -98 86 -132 103
-95 47 -326 67 -451 37z m460 -844 c-2 -132 -4 -142 -33 -201 -17 -34 -51 -81
-75 -103 -24 -22 -42 -42 -40 -45 2 -2 -2 -4 -8 -4 -7 -1 -39 -11 -70 -22 -32
-12 -66 -21 -77 -21 -11 0 -22 -4 -25 -9 -7 -10 -103 20 -156 50 -29 17 -45
36 -64 79 -32 71 -37 110 -21 171 13 49 44 109 56 109 4 0 10 8 13 18 7 22
124 78 194 93 28 6 52 14 52 17 0 4 58 7 128 7 l129 1 -3 -140z"/>
<path d="M47060 21090 c-64 -16 -160 -56 -170 -70 -3 -4 -18 -14 -35 -23 -36
-19 -112 -90 -141 -132 -128 -181 -181 -442 -138 -680 17 -91 17 -93 69 -198
36 -75 147 -207 173 -207 6 0 17 -6 25 -14 22 -22 136 -74 189 -85 113 -26
303 -30 422 -11 69 12 235 56 244 65 4 4 -7 77 -23 150 -10 46 -19 49 -80 26
-31 -12 -73 -24 -92 -27 -20 -3 -45 -8 -57 -11 -38 -10 -235 -11 -273 -2 -21
5 -48 12 -60 15 -33 7 -111 51 -159 90 -23 18 -45 30 -49 26 -5 -4 -5 -1 -1 6
5 8 -3 27 -18 47 -14 18 -26 38 -26 44 0 6 -4 11 -10 11 -5 0 -9 3 -8 8 1 4
-6 32 -15 62 -14 49 -21 96 -18 126 1 6 40 11 109 11 137 1 478 11 652 19 74
4 152 7 173 8 41 0 38 -9 40 114 1 75 -13 185 -26 201 -7 8 -10 15 -8 15 9 2
-22 96 -31 96 -5 0 -7 4 -4 9 5 8 -49 103 -84 147 -41 53 -175 139 -233 149
-12 3 -43 9 -68 15 -75 18 -198 18 -269 0z m247 -196 c78 -23 143 -76 175
-143 41 -85 48 -113 52 -206 l1 -30 -355 -1 c-195 0 -358 0 -361 2 -10 6 18
127 41 178 31 69 122 157 198 193 55 26 72 30 130 26 37 -2 90 -11 119 -19z"/>
<path d="M49338 21104 c-2 -1 -23 -5 -47 -9 -56 -8 -144 -41 -196 -73 -41 -24
-165 -148 -165 -164 0 -4 -3 -8 -7 -8 -5 0 -9 39 -11 88 -6 149 1 135 -65 137
-32 1 -60 -2 -63 -6 -2 -5 -15 -5 -27 -1 -24 9 -59 8 -73 -1 -5 -3 -8 -70 -7
-149 1 -78 3 -259 4 -400 2 -177 6 -255 13 -250 8 4 8 1 0 -9 -7 -9 -9 -135
-7 -399 4 -457 4 -373 0 -563 -1 -87 0 -162 3 -165 6 -8 249 -10 251 -2 0 3 2
151 4 330 2 179 4 340 4 358 l1 33 50 -54 c57 -62 149 -112 225 -123 87 -11
237 -7 307 10 91 22 161 53 152 67 -4 8 -3 9 5 5 34 -21 177 133 229 247 28
62 33 75 54 152 20 70 23 102 22 245 -1 141 -4 176 -24 240 -42 142 -103 245
-190 323 -53 48 -166 111 -181 101 -5 -3 -9 -1 -9 4 0 16 -239 50 -252 36z
m92 -225 c86 -23 207 -106 218 -151 2 -7 7 -15 11 -18 11 -8 37 -69 56 -130
20 -67 28 -245 14 -320 -34 -184 -111 -298 -239 -357 -30 -14 -62 -29 -70 -33
-32 -14 -174 -2 -232 20 -32 12 -62 18 -68 15 -6 -4 -9 -3 -8 2 2 5 -21 32
-50 61 -56 55 -97 130 -110 203 -4 24 -7 116 -6 204 2 136 7 183 27 260 10 36
56 105 100 149 47 47 98 79 166 104 31 11 132 6 191 -9z"/>
<path d="M38587 21084 c-1 -1 -22 -4 -47 -7 -92 -12 -135 -19 -140 -24 -7 -7
-9 -103 -13 -763 l-3 -605 45 -4 c79 -8 533 -6 606 1 102 11 180 34 256 75
164 88 210 163 213 343 1 100 -31 171 -101 226 -43 35 -71 49 -188 99 l-30 13
30 7 c32 8 87 34 95 44 3 4 17 14 32 24 36 23 83 93 95 145 25 97 -11 232 -75
290 -39 34 -161 99 -200 107 -12 2 -26 6 -31 9 -18 12 -532 31 -544 20z m361
-188 c4 -2 30 -7 57 -11 98 -11 179 -83 184 -164 3 -48 -26 -116 -63 -148 -27
-24 -118 -60 -174 -68 -49 -8 -292 -14 -307 -8 -6 2 -10 41 -10 96 0 50 -3
100 -8 111 -5 11 -5 16 0 13 5 -3 9 34 8 85 0 88 1 91 22 93 13 1 26 4 29 8 7
7 249 1 262 -7z m-133 -566 c-3 -5 4 -9 17 -9 37 2 129 -10 181 -22 26 -6 54
-9 61 -6 8 3 16 2 18 -2 2 -4 23 -18 48 -32 54 -29 99 -91 106 -144 6 -51 -30
-151 -62 -172 -13 -8 -21 -20 -17 -26 3 -6 1 -7 -5 -3 -6 4 -22 0 -34 -8 -30
-19 -119 -43 -193 -52 -69 -8 -258 -8 -284 1 -16 5 -18 24 -17 238 l1 232 82
1 c46 0 86 3 90 7 10 10 15 8 8 -3z"/>
<path d="M14291 21070 c-10 -8 -8 -279 3 -273 5 4 6 0 0 -8 -12 -20 -13 -159
-1 -152 6 4 7 1 1 -8 -12 -20 -13 -159 -1 -152 6 4 7 1 1 -8 -11 -19 -13 -159
-1 -152 5 3 5 -2 0 -13 -7 -14 -10 -581 -4 -615 1 -5 201 -2 270 4 28 3 38 11
60 49 14 26 62 106 105 180 44 73 79 138 79 145 0 7 3 10 7 8 4 -2 16 15 28
38 25 48 67 120 90 157 9 14 17 31 18 39 2 8 7 17 11 20 9 6 72 114 108 186
11 22 23 42 28 43 4 2 7 7 7 12 0 5 29 62 65 127 l65 118 -3 -565 -3 -565 123
0 c68 0 123 2 124 5 7 32 2 317 -5 313 -5 -4 -6 0 0 8 12 20 13 159 1 152 -6
-4 -7 -1 -1 8 12 20 13 159 1 152 -6 -4 -7 -1 -1 8 12 20 13 159 1 152 -6 -4
-7 -1 -1 8 12 20 13 159 1 152 -6 -4 -7 -1 -1 8 12 20 13 159 1 152 -6 -4 -7
-1 -1 8 12 20 13 159 1 152 -6 -4 -7 -1 -2 7 5 8 9 33 10 56 3 51 2 51 -115
48 -200 -5 -188 -2 -221 -51 -17 -23 -26 -43 -22 -43 4 0 0 -5 -9 -11 -10 -5
-18 -16 -18 -24 0 -7 -6 -20 -13 -27 -7 -7 -27 -35 -43 -61 -16 -27 -39 -65
-52 -85 -13 -21 -25 -45 -29 -54 -3 -10 -9 -18 -13 -18 -4 0 -10 -8 -13 -17
-4 -10 -18 -36 -32 -58 -14 -22 -31 -52 -37 -67 -7 -16 -16 -28 -20 -28 -4 0
-8 -4 -8 -9 0 -5 -20 -44 -45 -85 -25 -42 -45 -79 -45 -81 0 -3 -11 -23 -25
-45 -14 -22 -22 -40 -19 -40 4 0 0 -8 -8 -17 -13 -16 -96 -166 -149 -273 l-18
-35 2 98 c2 63 -1 97 -7 97 -7 0 -8 3 -1 8 16 11 17 33 3 50 -10 12 -10 14 0
8 9 -6 12 22 13 126 0 73 1 267 3 431 1 164 -1 301 -4 305 -6 8 -228 10 -239
2z"/>
<path d="M16479 21072 c-12 -2 -14 -100 -13 -690 1 -378 2 -689 3 -692 1 -7
241 -7 242 0 1 3 2 138 3 300 0 162 4 300 8 305 4 7 119 10 320 9 172 -1 316
-2 319 -3 3 0 5 -135 4 -298 -1 -164 0 -303 2 -308 3 -8 222 -13 253 -6 3 0 5
312 5 693 l0 692 -128 1 c-70 0 -127 -2 -128 -5 -1 -3 -2 -129 -3 -280 l-1
-275 -325 0 -326 -1 1 274 c0 151 -2 277 -5 281 -5 6 -200 9 -231 3z"/>
<path d="M18447 21070 c-15 -6 -17 -42 -2 -52 7 -5 7 -8 -1 -8 -8 0 -12 -102
-5 -140 1 -3 97 -5 214 -5 l212 0 0 -587 c0 -386 3 -588 10 -589 57 -4 98 -3
102 4 3 4 10 4 16 0 10 -7 77 -9 122 -4 12 1 14 200 2 218 -4 6 -4 14 0 16 7
5 9 273 3 287 -1 3 -1 10 0 15 7 25 5 317 -2 322 -5 2 -5 10 -1 16 4 7 8 77 8
157 l0 145 215 0 216 0 -2 100 c-1 55 -2 102 -3 105 -1 3 -246 5 -546 5 -300
0 -551 -2 -558 -5z"/>
<path d="M24569 21070 c-7 -35 -2 -357 6 -362 6 -5 6 -8 0 -8 -7 0 -10 -173
-9 -502 1 -277 2 -505 3 -508 1 -4 221 -5 241 -1 3 1 5 138 5 306 -1 204 3
306 10 308 9 3 622 1 635 -2 3 0 5 -135 5 -298 -1 -164 0 -303 2 -308 3 -8
184 -12 249 -6 9 1 12 73 4 91 -1 3 -1 10 0 15 7 25 4 457 -3 462 -4 2 -4 10
0 16 12 19 10 797 -2 798 -5 1 -63 2 -127 3 -110 1 -117 0 -120 -19 -2 -11 -3
-136 -3 -277 1 -142 -2 -259 -5 -259 -3 -1 -148 -2 -323 -3 -277 -1 -318 0
-321 14 -2 8 -3 131 -2 273 1 142 -1 261 -4 265 -6 8 -239 10 -241 2z"/>
<path d="M28564 21072 c-11 -8 -14 -194 -2 -202 3 -3 99 -5 212 -5 113 1 207
-2 207 -5 1 -3 2 -183 3 -400 1 -217 5 -400 9 -406 3 -6 3 -14 0 -18 -4 -4 -7
-83 -8 -176 0 -143 2 -169 15 -172 8 -2 67 -3 130 -3 l115 1 1 179 c0 99 -4
188 -9 199 -5 11 -5 16 0 13 6 -4 9 17 9 48 -1 30 -5 55 -11 55 -6 0 -6 3 0 8
12 8 14 122 2 122 -5 0 -5 6 0 13 12 18 10 337 -2 337 -6 0 -6 3 0 8 7 4 11
47 10 102 l0 95 213 0 c137 0 212 3 213 10 5 48 2 195 -3 196 -5 1 -248 2
-540 3 -356 1 -538 -2 -547 -9 -11 -7 -13 -7 -7 3 8 14 6 15 -10 4z"/>
<path d="M31868 21060 c-2 -8 -3 -321 -3 -694 l1 -680 71 -1 c39 0 69 3 66 8
-3 5 3 5 13 0 16 -7 52 -9 99 -4 12 1 14 689 2 708 -4 6 -4 14 0 16 7 5 10
317 3 342 -1 6 -1 12 0 15 1 3 3 25 4 50 l2 45 312 0 c205 0 313 -3 315 -10 2
-5 3 -270 3 -588 -1 -378 2 -577 9 -578 6 0 65 -1 133 -2 103 -2 122 0 123 13
6 81 3 689 -3 702 -4 9 -5 19 -1 21 10 6 10 634 0 643 -10 11 -300 12 -314 2
-6 -5 -13 -5 -16 -1 -6 10 -668 10 -683 0 -6 -3 -14 -3 -18 0 -4 4 -31 7 -61
8 -40 0 -55 -3 -57 -15z"/>
<path d="M42389 21065 c-6 -49 -2 -1128 4 -1132 4 -3 4 -10 -1 -16 -7 -10 -9
-151 -3 -218 1 -14 17 -16 128 -13 69 1 137 5 149 8 21 6 102 128 163 244 8
15 17 29 20 32 4 3 27 41 52 85 25 44 91 159 147 257 56 97 102 181 102 186 0
6 4 12 8 14 5 2 32 46 60 98 28 52 64 120 81 150 l30 55 -6 -320 c-3 -176 -6
-430 -7 -565 l-1 -244 118 -1 c68 0 122 4 126 10 10 13 8 206 -1 221 -4 6 -4
14 0 18 9 10 10 216 0 222 -5 3 -5 11 -1 17 10 16 11 217 1 223 -5 3 -5 11 -1
17 10 16 11 217 1 223 -5 3 -5 11 -1 17 4 7 8 104 8 217 l0 206 -90 -2 c-49
-1 -118 -3 -152 -4 l-63 -3 -76 -126 c-42 -69 -93 -155 -115 -190 -21 -34 -39
-65 -39 -66 0 -2 -17 -32 -39 -67 -69 -113 -236 -413 -233 -420 1 -5 -2 -8 -7
-8 -5 0 -15 -16 -22 -35 -7 -19 -17 -35 -21 -35 -4 0 -8 -4 -8 -9 0 -6 -18
-43 -40 -83 l-39 -73 3 485 c1 267 -1 493 -6 502 -5 10 -4 19 2 23 10 6 6 52
-4 63 -3 3 -1 11 6 19 6 7 8 16 4 20 -11 11 -236 9 -237 -2z"/>
<path d="M44722 21065 c-3 -5 -7 -88 -8 -185 -6 -478 -42 -671 -172 -915 l-37
-70 -60 -10 -60 -11 0 -311 c0 -269 2 -312 15 -315 8 -2 55 -4 105 -3 l90 0 2
60 c2 33 4 128 6 212 1 84 6 155 11 160 8 8 935 12 937 3 1 -3 3 -81 5 -173 2
-92 5 -189 7 -215 l3 -47 102 0 c62 -1 103 3 105 10 2 5 4 146 5 313 3 342 9
316 -80 316 -27 0 -49 5 -49 11 -1 5 -2 273 -3 595 l-1 585 -458 0 c-287 0
-461 -4 -465 -10z m653 -197 c8 -5 13 -945 6 -979 -1 -6 -601 -2 -608 5 -2 2
9 30 25 62 43 85 91 225 112 329 23 109 32 219 34 427 1 129 4 158 16 160 28
6 406 2 415 -4z"/>
<path d="M30291 20550 c-5 -4 -7 -158 -2 -180 0 -3 158 -5 351 -5 192 0 350 2
351 5 4 19 4 172 -1 178 -6 8 -688 10 -699 2z"/>
</g>
</svg>
